<svg id="Layer_1" data-name="Layer 1" xmlns="http://www.w3.org/2000/svg" viewBox="0 0 276.71 330.56"><defs><clipPath id="clippath"><path d="M0 0h276.71v330.56H0z" fill="none"/></clipPath><style>.cls-3{fill:#8482f2}.cls-6{fill:#231f20}.cls-7{fill:#5e5ee4}</style></defs><g clip-path="url(#clippath)" fill="none"><path d="M0 0h276.71v330.56H0z" fill="#bcbcff"/><circle class="cls-3" cx="15.85" cy="12.28" r="3.34"/><circle class="cls-3" cx="40.61" cy="12.28" r="3.34"/><circle class="cls-3" cx="65.37" cy="12.28" r="3.34"/><circle class="cls-3" cx="90.13" cy="12.28" r="3.34"/><circle class="cls-3" cx="114.89" cy="12.28" r="3.34"/><circle class="cls-3" cx="139.65" cy="12.28" r="3.34"/><circle class="cls-3" cx="164.41" cy="12.28" r="3.34"/><circle class="cls-3" cx="189.17" cy="12.28" r="3.34"/><circle class="cls-3" cx="213.93" cy="12.28" r="3.34"/><circle class="cls-3" cx="238.69" cy="12.28" r="3.34"/><circle class="cls-3" cx="263.45" cy="12.28" r="3.34"/><circle class="cls-3" cx="15.85" cy="35.62" r="3.34"/><circle class="cls-3" cx="40.61" cy="35.62" r="3.34"/><circle class="cls-3" cx="65.37" cy="35.62" r="3.34"/><circle class="cls-3" cx="90.13" cy="35.62" r="3.34"/><circle class="cls-3" cx="114.89" cy="35.62" r="3.34"/><circle class="cls-3" cx="139.65" cy="35.62" r="3.34"/><circle class="cls-3" cx="164.41" cy="35.62" r="3.34"/><circle class="cls-3" cx="189.17" cy="35.62" r="3.34"/><circle class="cls-3" cx="213.93" cy="35.62" r="3.34"/><circle class="cls-3" cx="238.69" cy="35.62" r="3.34"/><circle class="cls-3" cx="263.45" cy="35.62" r="3.34"/><circle class="cls-3" cx="15.85" cy="58.97" r="3.34"/><circle class="cls-3" cx="40.61" cy="58.97" r="3.34"/><circle class="cls-3" cx="65.37" cy="58.97" r="3.34"/><circle class="cls-3" cx="90.13" cy="58.97" r="3.34"/><circle class="cls-3" cx="114.89" cy="58.97" r="3.34"/><circle class="cls-3" cx="139.65" cy="58.97" r="3.34"/><circle class="cls-3" cx="164.41" cy="58.97" r="3.34"/><circle class="cls-3" cx="189.17" cy="58.97" r="3.34"/><circle class="cls-3" cx="213.93" cy="58.97" r="3.34"/><circle class="cls-3" cx="238.69" cy="58.97" r="3.34"/><circle class="cls-3" cx="263.45" cy="58.97" r="3.34"/><circle class="cls-3" cx="15.85" cy="82.32" r="3.34"/><circle class="cls-3" cx="40.61" cy="82.32" r="3.34"/><circle class="cls-3" cx="65.37" cy="82.32" r="3.34"/><circle class="cls-3" cx="90.13" cy="82.32" r="3.34"/><circle class="cls-3" cx="114.89" cy="82.32" r="3.34"/><circle class="cls-3" cx="139.65" cy="82.32" r="3.34"/><circle class="cls-3" cx="164.41" cy="82.32" r="3.34"/><circle class="cls-3" cx="189.17" cy="82.32" r="3.34"/><circle class="cls-3" cx="213.93" cy="82.32" r="3.34"/><circle class="cls-3" cx="238.69" cy="82.32" r="3.34"/><circle class="cls-3" cx="263.45" cy="82.32" r="3.34"/><circle class="cls-3" cx="15.85" cy="105.66" r="3.34"/><circle class="cls-3" cx="40.61" cy="105.66" r="3.34"/><circle class="cls-3" cx="65.37" cy="105.66" r="3.34"/><circle class="cls-3" cx="90.13" cy="105.66" r="3.34"/><circle class="cls-3" cx="114.89" cy="105.66" r="3.34"/><circle class="cls-3" cx="139.65" cy="105.66" r="3.34"/><circle class="cls-3" cx="164.41" cy="105.66" r="3.34"/><circle class="cls-3" cx="189.17" cy="105.66" r="3.34"/><circle class="cls-3" cx="213.93" cy="105.66" r="3.34"/><circle class="cls-3" cx="238.69" cy="105.66" r="3.34"/><circle class="cls-3" cx="263.45" cy="105.66" r="3.34"/><circle class="cls-3" cx="15.85" cy="129.01" r="3.34"/><circle class="cls-3" cx="40.61" cy="129.01" r="3.34"/><circle class="cls-3" cx="65.37" cy="129.01" r="3.34"/><circle class="cls-3" cx="90.13" cy="129.01" r="3.34"/><circle class="cls-3" cx="114.89" cy="129.01" r="3.34"/><circle class="cls-3" cx="139.65" cy="129.01" r="3.34"/><circle class="cls-3" cx="164.41" cy="129.01" r="3.34"/><circle class="cls-3" cx="189.17" cy="129.01" r="3.34"/><circle class="cls-3" cx="213.93" cy="129.01" r="3.34"/><circle class="cls-3" cx="238.69" cy="129.01" r="3.34"/><circle class="cls-3" cx="263.45" cy="129.01" r="3.34"/><circle class="cls-3" cx="15.85" cy="152.36" r="3.34"/><circle class="cls-3" cx="40.61" cy="152.36" r="3.34"/><circle class="cls-3" cx="65.37" cy="152.36" r="3.34"/><circle class="cls-3" cx="90.13" cy="152.36" r="3.34"/><circle class="cls-3" cx="114.89" cy="152.36" r="3.34"/><circle class="cls-3" cx="139.65" cy="152.36" r="3.34"/><circle class="cls-3" cx="164.41" cy="152.36" r="3.34"/><circle class="cls-3" cx="189.17" cy="152.36" r="3.34"/><circle class="cls-3" cx="213.93" cy="152.36" r="3.34"/><circle class="cls-3" cx="238.69" cy="152.36" r="3.34"/><circle class="cls-3" cx="263.45" cy="152.36" r="3.34"/><circle class="cls-3" cx="15.85" cy="175.7" r="3.34"/><circle class="cls-3" cx="40.61" cy="175.7" r="3.34"/><circle class="cls-3" cx="65.37" cy="175.7" r="3.34"/><circle class="cls-3" cx="90.13" cy="175.7" r="3.34"/><circle class="cls-3" cx="114.89" cy="175.7" r="3.34"/><circle class="cls-3" cx="139.65" cy="175.7" r="3.34"/><circle class="cls-3" cx="164.41" cy="175.7" r="3.34"/><circle class="cls-3" cx="189.17" cy="175.7" r="3.34"/><circle class="cls-3" cx="213.93" cy="175.7" r="3.34"/><circle class="cls-3" cx="238.69" cy="175.7" r="3.34"/><circle class="cls-3" cx="263.45" cy="175.7" r="3.34"/><circle class="cls-3" cx="15.85" cy="199.05" r="3.34"/><circle class="cls-3" cx="40.61" cy="199.05" r="3.34"/><circle class="cls-3" cx="65.37" cy="199.05" r="3.34"/><circle class="cls-3" cx="90.13" cy="199.05" r="3.34"/><circle class="cls-3" cx="114.89" cy="199.05" r="3.34"/><circle class="cls-3" cx="139.65" cy="199.05" r="3.34"/><circle class="cls-3" cx="164.41" cy="199.05" r="3.34"/><circle class="cls-3" cx="189.17" cy="199.05" r="3.34"/><circle class="cls-3" cx="213.93" cy="199.05" r="3.34"/><circle class="cls-3" cx="238.69" cy="199.05" r="3.34"/><circle class="cls-3" cx="263.45" cy="199.05" r="3.34"/><circle class="cls-3" cx="15.85" cy="222.4" r="3.34"/><circle class="cls-3" cx="40.61" cy="222.4" r="3.34"/><circle class="cls-3" cx="65.37" cy="222.4" r="3.34"/><circle class="cls-3" cx="90.13" cy="222.4" r="3.34"/><circle class="cls-3" cx="114.89" cy="222.4" r="3.34"/><circle class="cls-3" cx="139.65" cy="222.4" r="3.34"/><circle class="cls-3" cx="164.41" cy="222.4" r="3.34"/><circle class="cls-3" cx="189.17" cy="222.4" r="3.34"/><circle class="cls-3" cx="213.93" cy="222.4" r="3.34"/><circle class="cls-3" cx="238.69" cy="222.4" r="3.34"/><circle class="cls-3" cx="263.45" cy="222.4" r="3.34"/><circle class="cls-3" cx="15.85" cy="245.75" r="3.34"/><circle class="cls-3" cx="40.61" cy="245.75" r="3.34"/><circle class="cls-3" cx="65.37" cy="245.75" r="3.34"/><circle class="cls-3" cx="90.13" cy="245.75" r="3.34"/><circle class="cls-3" cx="114.89" cy="245.75" r="3.34"/><circle class="cls-3" cx="139.65" cy="245.75" r="3.34"/><circle class="cls-3" cx="164.41" cy="245.75" r="3.34"/><circle class="cls-3" cx="189.17" cy="245.75" r="3.34"/><circle class="cls-3" cx="213.93" cy="245.75" r="3.34"/><circle class="cls-3" cx="238.69" cy="245.75" r="3.34"/><circle class="cls-3" cx="263.45" cy="245.75" r="3.34"/><circle class="cls-3" cx="15.85" cy="269.09" r="3.34"/><circle class="cls-3" cx="40.61" cy="269.09" r="3.34"/><circle class="cls-3" cx="65.37" cy="269.09" r="3.34"/><circle class="cls-3" cx="90.13" cy="269.09" r="3.34"/><circle class="cls-3" cx="114.89" cy="269.09" r="3.34"/><circle class="cls-3" cx="139.65" cy="269.09" r="3.34"/><circle class="cls-3" cx="164.41" cy="269.09" r="3.34"/><circle class="cls-3" cx="189.17" cy="269.09" r="3.34"/><circle class="cls-3" cx="213.93" cy="269.09" r="3.34"/><circle class="cls-3" cx="238.69" cy="269.09" r="3.34"/><circle class="cls-3" cx="263.45" cy="269.09" r="3.34"/><circle class="cls-3" cx="15.85" cy="292.44" r="3.34"/><circle class="cls-3" cx="40.61" cy="292.44" r="3.34"/><circle class="cls-3" cx="65.37" cy="292.44" r="3.34"/><circle class="cls-3" cx="90.13" cy="292.44" r="3.34"/><circle class="cls-3" cx="114.89" cy="292.44" r="3.34"/><circle class="cls-3" cx="139.65" cy="292.44" r="3.34"/><circle class="cls-3" cx="164.41" cy="292.44" r="3.34"/><circle class="cls-3" cx="189.17" cy="292.44" r="3.34"/><circle class="cls-3" cx="213.93" cy="292.44" r="3.34"/><circle class="cls-3" cx="238.69" cy="292.44" r="3.34"/><circle class="cls-3" cx="263.45" cy="292.44" r="3.34"/><circle class="cls-3" cx="15.85" cy="315.79" r="3.34"/><circle class="cls-3" cx="40.61" cy="315.79" r="3.34"/><circle class="cls-3" cx="65.37" cy="315.79" r="3.34"/><circle class="cls-3" cx="90.13" cy="315.79" r="3.34"/><circle class="cls-3" cx="114.89" cy="315.79" r="3.34"/><circle class="cls-3" cx="139.65" cy="315.79" r="3.34"/><circle class="cls-3" cx="164.41" cy="315.79" r="3.34"/><circle class="cls-3" cx="189.17" cy="315.79" r="3.34"/><circle class="cls-3" cx="213.93" cy="315.79" r="3.34"/><circle class="cls-3" cx="238.69" cy="315.79" r="3.34"/><circle class="cls-3" cx="263.45" cy="315.79" r="3.34"/><rect x="-41.43" y="71.15" width="289.69" height="206.68" rx="15" ry="15" transform="rotate(-4.05 103.423 174.413)" stroke="#231f20" stroke-miterlimit="10" stroke-width="3" fill="#8482f2"/><rect x="174.57" y="81.87" width="50.82" height="30.49" rx="7.86" ry="7.86" transform="rotate(-4.13 200.051 97.189)" stroke="#231f20" stroke-miterlimit="10" stroke-width="3" fill="#5e5ee4"/><text transform="rotate(-4.13 1548.243 -2523.887)" font-family="Poppins-Bold,Poppins" font-size="20" font-weight="700"><tspan x="0" y="0">Ad</tspan></text><path class="cls-7" d="m-2.09 197.84 8.22-55.55 20.27-1.34 116.61 55.12 3.03 1.02-11 25.49-108.13 7.15-28.98-31.89Zm62.54 9.44.51-1.09-44.61-20.83-.51 1.09 44.61 20.83Z"/><path class="cls-6" d="m26.11 142.47 116.33 54.99s.66.22 1.56.53l-9.99 23.15-106.49 7.04L-.5 197.36l7.94-53.65 18.67-1.23m35.06 66.8 1.78-3.81-47.33-22.1-1.78 3.81 47.33 22.1m-34.49-69.85-.78.05-18.67 1.23-2.42.16-.35 2.39-7.94 53.65-.21 1.41.96 1.05 28.02 30.82.97 1.07 1.44-.1 106.49-7.04 1.83-.12.73-1.68 9.99-23.15 1.29-2.99-3.09-1.04c-.63-.21-1.15-.39-1.39-.47L27.37 139.75l-.7-.33Z"/><path class="cls-7" d="m141.88 198.85-121.64-57.5 46.03-3.04.33.15s8.78 3.82 21.87 9.58l1.6.7-5.67 8.95 1.02.65 5.77-9.1 1.18.52c13.29 5.85 25.82 11.4 37.22 16.49l1.58.71-6.5 10.25 1.02.65 6.59-10.4 1.18.53c6.63 2.97 13.28 5.95 19.7 8.86l1.34.61-9.68 22.41-2.96-1Z"/><path class="cls-6" d="M66.01 139.83s8.77 3.82 21.87 9.58l-5.54 8.74 3.55 2.25 5.88-9.28c10.76 4.73 23.85 10.52 37.21 16.49l-6.37 10.05 3.55 2.25 6.7-10.57c6.63 2.97 13.27 5.95 19.69 8.86l-8.54 19.79c-.91-.3-1.56-.53-1.56-.53L26.12 142.47l39.9-2.64m.53-3.04-.73.05-39.9 2.64-11.54.76 10.46 4.94 116.33 54.99.15.07.16.05s.66.23 1.58.53l2.62.88 1.09-2.53 8.54-19.79 1.17-2.71-2.68-1.22c-6.03-2.73-12.66-5.71-19.7-8.86l-.71-.32-1.28-.57-.38-.17-1.51-.68c-11.47-5.12-24-10.67-37.23-16.49l-.7-.31-1.33-.59-.33-.14-1.53-.67c-12.95-5.69-21.79-9.54-21.88-9.58l-.67-.29Z"/><path class="cls-7" d="m120.54 178.12 7.87-12.41 6.65 2.97-8.43 13.3-6.09-3.86z"/><path class="cls-6" d="M128.98 167.61c1.29.58 2.59 1.16 3.88 1.73l-6.7 10.57-3.55-2.25 6.37-10.05m-1.15-3.8-1.39 2.19-6.37 10.05-1.61 2.53 2.53 1.61 3.55 2.25 2.53 1.61 1.61-2.53 6.7-10.57 1.86-2.93-3.17-1.42-3.88-1.73-2.37-1.06Z"/><path class="cls-7" d="m80.26 158.61 7.04-11.1 6.67 2.94-7.62 12.02-6.09-3.86z"/><path class="cls-6" d="M87.88 149.41c1.26.55 2.56 1.13 3.89 1.71l-5.88 9.28-3.55-2.25 5.54-8.74m-1.15-3.78-1.38 2.18-5.54 8.74-1.61 2.53 2.53 1.61 3.55 2.25 2.53 1.61 1.61-2.53 5.88-9.28 1.87-2.95-3.19-1.41-3.9-1.71-2.36-1.04Z"/><path class="cls-7" d="m151.78 176.2 1.39.63c23.57 10.68 39.03 17.99 45.95 21.72 8.07 4.36 14.44 9.82 18.93 16.25l1.53 2.18-87.92 5.81 20.12-46.6Z"/><path class="cls-6" d="M152.55 178.2c20.16 9.13 38.04 17.46 45.86 21.68 8.84 4.78 14.63 10.37 18.41 15.79l-82.81 5.48L144 198l8.54-19.79m-1.54-3.99-1.21 2.8-8.54 19.79-9.99 23.15-1.95 4.51 4.9-.32 82.81-5.48 5.31-.35-3.05-4.36c-4.63-6.62-11.17-12.24-19.45-16.71-6.96-3.76-22.45-11.08-46.04-21.77l-2.78-1.26Z"/><path class="cls-7" d="m-18.66 179.61.06-.66c.59-6.56 1.03-12.02 1.3-16.23.56-8.5 4.42-13.43 7.57-16.07 3.43-2.88 6.74-3.71 6.88-3.75l.13-.03 11.92-.79-8.68 58.63-19.18-21.1Z"/><path class="cls-6" d="M7.44 143.7-.5 197.36l-16.61-18.27c.55-6.14 1.01-11.75 1.31-16.27 1.02-15.44 13.3-18.46 13.3-18.46l9.94-.66m3.51-3.24-3.71.25-9.94.66-.26.02-.26.06c-4.99 1.23-14.66 7.23-15.58 21.18-.28 4.18-.71 9.63-1.3 16.2l-.12 1.31.89.97 16.61 18.27 4.26 4.69.93-6.27 7.94-53.65.54-3.68Z"/><path class="cls-7" d="M-17.79 255.41c-1.68 0-3.18-.65-4.33-1.87-3.3-3.5-2.98-10.75-2.93-11.56 0-.08.83-7.53.83-7.53l5.12-.48 239.29-15.83.46.85c5.51 10.19 4.74 18.73 4.71 19.09l-.12 1.27-242.55 16.04c-.16.01-.31.02-.46.02Z"/><path class="cls-6" d="M219.33 219.71c5.35 9.9 4.53 18.23 4.53 18.23s-234.43 15.5-241.28 15.96c-.12 0-.25.01-.36.01-6.46 0-5.77-11.84-5.77-11.84s.26-2.33.69-6.24l3.9-.37 238.29-15.76m1.72-3.12-1.92.13-238.29 15.76h-.08l-3.9.37-2.44.23-.27 2.43c-.43 3.9-.69 6.23-.69 6.23v.08l-.01.08c-.05.88-.39 8.72 3.34 12.68 1.44 1.53 3.32 2.34 5.42 2.34.18 0 .37 0 .56-.02l241.28-15.96 2.54-.17.25-2.53c.04-.38.84-9.37-4.88-19.95l-.92-1.69Z"/><path class="cls-7" d="M-23.88 231.32c1.29-11.86 3.68-34.44 5.28-52.37l.3-3.4 49.02 53.92-54.8 3.62.19-1.78Z"/><path class="cls-6" d="M-17.11 179.09-.5 197.36l28.02 30.82-49.91 3.3c1.38-12.79 3.71-34.76 5.29-52.39m-2.38-7.08-.61 6.81c-1.6 17.91-4 40.48-5.28 52.34l-.38 3.55 3.57-.24 49.91-3.3 6.2-.41-4.18-4.6-28.03-30.82-16.61-18.27-4.6-5.06Z"/><path class="cls-7" d="m-23.75 230.07 241.32-15.96.49.69c.95 1.36 1.82 2.77 2.59 4.2l1.11 2.06-246.3 16.29.79-7.27Z"/><path class="cls-6" d="M216.82 215.66c.96 1.37 1.79 2.72 2.5 4.05l-238.29 15.76-3.89.26c.14-1.26.29-2.69.46-4.25l49.91-3.3L134 221.14l82.81-5.48m1.49-3.1-1.69.11-82.81 5.48-106.49 7.04-49.91 3.3-2.51.17-.27 2.5-.46 4.24-.39 3.56 3.57-.24 3.89-.26 238.29-15.76 4.66-.31-2.22-4.11c-.8-1.48-1.7-2.94-2.69-4.34l-.97-1.38Z"/><path class="cls-7" transform="rotate(-64.98 38.41 196.329)" d="M34.8 168.7h7.21v55.23H34.8z"/><path class="cls-6" d="m15.62 183.36 47.33 22.1-1.78 3.81-47.33-22.1 1.78-3.81m-1.45-3.99-1.27 2.72-1.78 3.81-1.27 2.72 2.72 1.27 47.33 22.1 2.72 1.27 1.27-2.72 1.78-3.81 1.27-2.72-2.72-1.27-47.33-22.1-2.72-1.27Z"/></g></svg>