<svg viewBox="0 0 276.71 330.56" xmlns="http://www.w3.org/2000/svg" xmlns:xlink="http://www.w3.org/1999/xlink"><clipPath id="a"><path d="m0 0h276.71v330.56h-276.71z"/></clipPath><clipPath id="b"><rect height="206.68" rx="13.21" transform="matrix(.93364296 -.358205 .358205 .93364296 -66.030013 37.670342)" width="289.69" x="-76.16" y="93.74"/></clipPath><g clip-path="url(#a)" fill="none"><path d="m0 0h276.71v330.56h-276.71z" fill="#5e5ee4"/><g fill="#8482f2"><circle cx="15.85" cy="12.28" r="3.34"/><circle cx="40.61" cy="12.28" r="3.34"/><circle cx="65.37" cy="12.28" r="3.34"/><circle cx="90.13" cy="12.28" r="3.34"/><circle cx="114.89" cy="12.28" r="3.34"/><circle cx="139.65" cy="12.28" r="3.34"/><circle cx="164.41" cy="12.28" r="3.34"/><circle cx="189.17" cy="12.28" r="3.34"/><circle cx="213.93" cy="12.28" r="3.34"/><circle cx="238.69" cy="12.28" r="3.34"/><circle cx="263.45" cy="12.28" r="3.34"/><circle cx="15.85" cy="35.62" r="3.34"/><circle cx="40.61" cy="35.62" r="3.34"/><circle cx="65.37" cy="35.62" r="3.34"/><circle cx="90.13" cy="35.62" r="3.34"/><circle cx="114.89" cy="35.62" r="3.34"/><circle cx="139.65" cy="35.62" r="3.34"/><circle cx="164.41" cy="35.62" r="3.34"/><circle cx="189.17" cy="35.62" r="3.34"/><circle cx="213.93" cy="35.62" r="3.34"/><circle cx="238.69" cy="35.62" r="3.34"/><circle cx="263.45" cy="35.62" r="3.34"/><circle cx="15.85" cy="58.97" r="3.34"/><circle cx="40.61" cy="58.97" r="3.34"/><circle cx="65.37" cy="58.97" r="3.34"/><circle cx="90.13" cy="58.97" r="3.34"/><circle cx="114.89" cy="58.97" r="3.34"/><circle cx="139.65" cy="58.97" r="3.34"/><circle cx="164.41" cy="58.97" r="3.34"/><circle cx="189.17" cy="58.97" r="3.34"/><circle cx="213.93" cy="58.97" r="3.34"/><circle cx="238.69" cy="58.97" r="3.34"/><circle cx="263.45" cy="58.97" r="3.34"/><circle cx="15.85" cy="82.32" r="3.34"/><circle cx="40.61" cy="82.32" r="3.34"/><circle cx="65.37" cy="82.32" r="3.34"/><circle cx="90.13" cy="82.32" r="3.34"/><circle cx="114.89" cy="82.32" r="3.34"/><circle cx="139.65" cy="82.32" r="3.34"/><circle cx="164.41" cy="82.32" r="3.34"/><circle cx="189.17" cy="82.32" r="3.34"/><circle cx="213.93" cy="82.32" r="3.34"/><circle cx="238.69" cy="82.32" r="3.34"/><circle cx="263.45" cy="82.32" r="3.34"/><circle cx="15.85" cy="105.66" r="3.34"/><circle cx="40.61" cy="105.66" r="3.34"/><circle cx="65.37" cy="105.66" r="3.34"/><circle cx="90.13" cy="105.66" r="3.34"/><circle cx="114.89" cy="105.66" r="3.34"/><circle cx="139.65" cy="105.66" r="3.34"/><circle cx="164.41" cy="105.66" r="3.34"/><circle cx="189.17" cy="105.66" r="3.34"/><circle cx="213.93" cy="105.66" r="3.34"/><circle cx="238.69" cy="105.66" r="3.34"/><circle cx="263.45" cy="105.66" r="3.34"/><circle cx="15.85" cy="129.01" r="3.34"/><circle cx="40.61" cy="129.01" r="3.34"/><circle cx="65.37" cy="129.01" r="3.34"/><circle cx="90.13" cy="129.01" r="3.34"/><circle cx="114.89" cy="129.01" r="3.34"/><circle cx="139.65" cy="129.01" r="3.34"/><circle cx="164.41" cy="129.01" r="3.34"/><circle cx="189.17" cy="129.01" r="3.34"/><circle cx="213.93" cy="129.01" r="3.34"/><circle cx="238.69" cy="129.01" r="3.34"/><circle cx="263.45" cy="129.01" r="3.34"/><circle cx="15.85" cy="152.36" r="3.34"/><circle cx="40.61" cy="152.36" r="3.34"/><circle cx="65.37" cy="152.36" r="3.34"/><circle cx="90.13" cy="152.36" r="3.34"/><circle cx="114.89" cy="152.36" r="3.34"/><circle cx="139.65" cy="152.36" r="3.34"/><circle cx="164.41" cy="152.36" r="3.34"/><circle cx="189.17" cy="152.36" r="3.34"/><circle cx="213.93" cy="152.36" r="3.34"/><circle cx="238.69" cy="152.36" r="3.34"/><circle cx="263.45" cy="152.36" r="3.34"/><circle cx="15.85" cy="175.7" r="3.34"/><circle cx="40.61" cy="175.7" r="3.34"/><circle cx="65.37" cy="175.7" r="3.34"/><circle cx="90.13" cy="175.7" r="3.34"/><circle cx="114.89" cy="175.7" r="3.34"/><circle cx="139.65" cy="175.7" r="3.34"/><circle cx="164.41" cy="175.7" r="3.34"/><circle cx="189.17" cy="175.7" r="3.34"/><circle cx="213.93" cy="175.7" r="3.34"/><circle cx="238.69" cy="175.7" r="3.34"/><circle cx="263.45" cy="175.7" r="3.34"/><circle cx="15.85" cy="199.05" r="3.34"/><circle cx="40.61" cy="199.05" r="3.34"/><circle cx="65.37" cy="199.05" r="3.34"/><circle cx="90.13" cy="199.05" r="3.34"/><circle cx="114.89" cy="199.05" r="3.34"/><circle cx="139.65" cy="199.05" r="3.34"/><circle cx="164.41" cy="199.05" r="3.34"/><circle cx="189.17" cy="199.05" r="3.34"/><circle cx="213.93" cy="199.05" r="3.34"/><circle cx="238.69" cy="199.05" r="3.34"/><circle cx="263.45" cy="199.05" r="3.34"/><circle cx="15.85" cy="222.4" r="3.34"/><circle cx="40.61" cy="222.4" r="3.34"/><circle cx="65.37" cy="222.4" r="3.34"/><circle cx="90.13" cy="222.4" r="3.34"/><circle cx="114.89" cy="222.4" r="3.34"/><circle cx="139.65" cy="222.4" r="3.34"/><circle cx="164.41" cy="222.4" r="3.34"/><circle cx="189.17" cy="222.4" r="3.34"/><circle cx="213.93" cy="222.4" r="3.34"/><circle cx="238.69" cy="222.4" r="3.34"/><circle cx="263.45" cy="222.4" r="3.34"/><circle cx="15.85" cy="245.75" r="3.34"/><circle cx="40.61" cy="245.75" r="3.34"/><circle cx="65.37" cy="245.75" r="3.34"/><circle cx="90.13" cy="245.75" r="3.34"/><circle cx="114.89" cy="245.75" r="3.34"/><circle cx="139.65" cy="245.75" r="3.34"/><circle cx="164.41" cy="245.75" r="3.34"/><circle cx="189.17" cy="245.75" r="3.34"/><circle cx="213.93" cy="245.75" r="3.34"/><circle cx="238.69" cy="245.75" r="3.34"/><circle cx="263.45" cy="245.75" r="3.34"/><circle cx="15.85" cy="269.09" r="3.34"/><circle cx="40.61" cy="269.09" r="3.34"/><circle cx="65.37" cy="269.09" r="3.34"/><circle cx="90.13" cy="269.09" r="3.34"/><circle cx="114.89" cy="269.09" r="3.34"/><circle cx="139.65" cy="269.09" r="3.34"/><circle cx="164.41" cy="269.09" r="3.34"/><circle cx="189.17" cy="269.09" r="3.34"/><circle cx="213.93" cy="269.09" r="3.34"/><circle cx="238.69" cy="269.09" r="3.34"/><circle cx="263.45" cy="269.09" r="3.34"/><circle cx="15.85" cy="292.44" r="3.34"/><circle cx="40.61" cy="292.44" r="3.34"/><circle cx="65.37" cy="292.44" r="3.34"/><circle cx="90.13" cy="292.44" r="3.34"/><circle cx="114.89" cy="292.44" r="3.34"/><circle cx="139.65" cy="292.44" r="3.34"/><circle cx="164.41" cy="292.44" r="3.34"/><circle cx="189.17" cy="292.44" r="3.34"/><circle cx="213.93" cy="292.44" r="3.34"/><circle cx="238.69" cy="292.44" r="3.34"/><circle cx="263.45" cy="292.44" r="3.34"/><circle cx="15.85" cy="315.79" r="3.34"/><circle cx="40.61" cy="315.79" r="3.34"/><circle cx="65.37" cy="315.79" r="3.34"/><circle cx="90.13" cy="315.79" r="3.34"/><circle cx="114.89" cy="315.79" r="3.34"/><circle cx="139.65" cy="315.79" r="3.34"/><circle cx="164.41" cy="315.79" r="3.34"/><circle cx="189.17" cy="315.79" r="3.34"/><circle cx="213.93" cy="315.79" r="3.34"/><circle cx="238.69" cy="315.79" r="3.34"/><circle cx="263.45" cy="315.79" r="3.34"/></g><path d="m30.49 0h276.71v330.56h-276.71z" fill="none"/><g clip-path="url(#b)"><path d="m-24.91 368.6 387.21-147.71-53.84-141.15-348.05 250.38zm-65.66-221.02 44.82 166.39 348.04-250.39-22.49-58.96-2.98 1.14z" fill="#8482f2" stroke="#231f20" stroke-miterlimit="10" stroke-width="3"/></g><rect height="206.68" rx="15" stroke="#231f20" stroke-miterlimit="10" stroke-width="3" transform="matrix(.93364296 -.358205 .358205 .93364296 -66.030013 37.670342)" width="289.69" x="-76.16" y="93.74"/><rect fill="#8482f2" height="30.49" rx="7.86" stroke="#231f20" stroke-miterlimit="10" stroke-width="3" transform="matrix(.9318813 -.36276335 .36276335 .9318813 -24.610079 56.400037)" width="50.82" x="112.46" y="78.49"/><text font-family="Poppins-Bold,Poppins" font-size="20" font-weight="700" transform="matrix(.9318813 -.36276335 .36276335 .9318813 126.689943 105.370085)"><tspan x="0" y="0">Ad</tspan></text><path d="m0 0h276.71v330.56h-276.71z" fill="none"/><path d="m-39.59 330.12 246.48-176.93-6.16-16.15-246.48 176.93z" fill="#8482f2" stroke="#231f20" stroke-miterlimit="10" stroke-width="3"/></g></svg>