<svg id="Layer_1" data-name="Layer 1" xmlns="http://www.w3.org/2000/svg" viewBox="0 0 276.71 330.56"><defs><clipPath id="clippath"><path d="M0 0h276.71v330.56H0z" fill="none"/></clipPath><style>.cls-2{fill:none}.cls-5{fill:#8482f2}.cls-6{fill:#5e5ee4}.cls-2{fill-rule:evenodd}.cls-2,.cls-5{stroke:#231f20;stroke-miterlimit:10;stroke-width:3px}</style></defs><g clip-path="url(#clippath)" fill="none"><path d="M0 0h276.71v330.56H0z" fill="#8482f2"/><circle class="cls-6" cx="15.85" cy="12.28" r="3.34"/><circle class="cls-6" cx="40.61" cy="12.28" r="3.34"/><circle class="cls-6" cx="65.37" cy="12.28" r="3.34"/><circle class="cls-6" cx="90.13" cy="12.28" r="3.34"/><circle class="cls-6" cx="114.89" cy="12.28" r="3.34"/><circle class="cls-6" cx="139.65" cy="12.28" r="3.34"/><circle class="cls-6" cx="164.41" cy="12.28" r="3.34"/><circle class="cls-6" cx="189.17" cy="12.28" r="3.34"/><circle class="cls-6" cx="213.93" cy="12.28" r="3.34"/><circle class="cls-6" cx="238.69" cy="12.28" r="3.34"/><circle class="cls-6" cx="263.45" cy="12.28" r="3.34"/><circle class="cls-6" cx="15.85" cy="35.62" r="3.34"/><circle class="cls-6" cx="40.61" cy="35.62" r="3.34"/><circle class="cls-6" cx="65.37" cy="35.62" r="3.34"/><circle class="cls-6" cx="90.13" cy="35.62" r="3.34"/><circle class="cls-6" cx="114.89" cy="35.62" r="3.34"/><circle class="cls-6" cx="139.65" cy="35.62" r="3.34"/><circle class="cls-6" cx="164.41" cy="35.62" r="3.34"/><circle class="cls-6" cx="189.17" cy="35.62" r="3.34"/><circle class="cls-6" cx="213.93" cy="35.62" r="3.34"/><circle class="cls-6" cx="238.69" cy="35.62" r="3.34"/><circle class="cls-6" cx="263.45" cy="35.62" r="3.34"/><circle class="cls-6" cx="15.85" cy="58.97" r="3.34"/><circle class="cls-6" cx="40.61" cy="58.97" r="3.34"/><circle class="cls-6" cx="65.37" cy="58.97" r="3.34"/><circle class="cls-6" cx="90.13" cy="58.97" r="3.34"/><circle class="cls-6" cx="114.89" cy="58.97" r="3.34"/><circle class="cls-6" cx="139.65" cy="58.97" r="3.34"/><circle class="cls-6" cx="164.41" cy="58.97" r="3.34"/><circle class="cls-6" cx="189.17" cy="58.97" r="3.34"/><circle class="cls-6" cx="213.93" cy="58.97" r="3.34"/><circle class="cls-6" cx="238.69" cy="58.97" r="3.34"/><circle class="cls-6" cx="263.45" cy="58.97" r="3.34"/><circle class="cls-6" cx="15.85" cy="82.32" r="3.34"/><circle class="cls-6" cx="40.61" cy="82.32" r="3.34"/><circle class="cls-6" cx="65.37" cy="82.32" r="3.34"/><circle class="cls-6" cx="90.13" cy="82.32" r="3.34"/><circle class="cls-6" cx="114.89" cy="82.32" r="3.34"/><circle class="cls-6" cx="139.65" cy="82.32" r="3.34"/><circle class="cls-6" cx="164.41" cy="82.32" r="3.34"/><circle class="cls-6" cx="189.17" cy="82.32" r="3.34"/><circle class="cls-6" cx="213.93" cy="82.32" r="3.34"/><circle class="cls-6" cx="238.69" cy="82.32" r="3.34"/><circle class="cls-6" cx="263.45" cy="82.32" r="3.34"/><circle class="cls-6" cx="15.85" cy="105.66" r="3.34"/><circle class="cls-6" cx="40.61" cy="105.66" r="3.34"/><circle class="cls-6" cx="65.37" cy="105.66" r="3.34"/><circle class="cls-6" cx="90.13" cy="105.66" r="3.34"/><circle class="cls-6" cx="114.89" cy="105.66" r="3.34"/><circle class="cls-6" cx="139.65" cy="105.66" r="3.34"/><circle class="cls-6" cx="164.41" cy="105.66" r="3.34"/><circle class="cls-6" cx="189.17" cy="105.66" r="3.34"/><circle class="cls-6" cx="213.93" cy="105.66" r="3.34"/><circle class="cls-6" cx="238.69" cy="105.66" r="3.34"/><circle class="cls-6" cx="263.45" cy="105.66" r="3.34"/><circle class="cls-6" cx="15.85" cy="129.01" r="3.34"/><circle class="cls-6" cx="40.61" cy="129.01" r="3.34"/><circle class="cls-6" cx="65.37" cy="129.01" r="3.34"/><circle class="cls-6" cx="90.13" cy="129.01" r="3.34"/><circle class="cls-6" cx="114.89" cy="129.01" r="3.34"/><circle class="cls-6" cx="139.65" cy="129.01" r="3.34"/><circle class="cls-6" cx="164.41" cy="129.01" r="3.34"/><circle class="cls-6" cx="189.17" cy="129.01" r="3.34"/><circle class="cls-6" cx="213.93" cy="129.01" r="3.34"/><circle class="cls-6" cx="238.69" cy="129.01" r="3.34"/><circle class="cls-6" cx="263.45" cy="129.01" r="3.34"/><circle class="cls-6" cx="15.85" cy="152.36" r="3.34"/><circle class="cls-6" cx="40.61" cy="152.36" r="3.34"/><circle class="cls-6" cx="65.37" cy="152.36" r="3.34"/><circle class="cls-6" cx="90.13" cy="152.36" r="3.34"/><circle class="cls-6" cx="114.89" cy="152.36" r="3.34"/><circle class="cls-6" cx="139.65" cy="152.36" r="3.34"/><circle class="cls-6" cx="164.41" cy="152.36" r="3.34"/><circle class="cls-6" cx="189.17" cy="152.36" r="3.34"/><circle class="cls-6" cx="213.93" cy="152.36" r="3.34"/><circle class="cls-6" cx="238.69" cy="152.36" r="3.34"/><circle class="cls-6" cx="263.45" cy="152.36" r="3.34"/><circle class="cls-6" cx="15.85" cy="175.7" r="3.34"/><circle class="cls-6" cx="40.61" cy="175.7" r="3.34"/><circle class="cls-6" cx="65.37" cy="175.7" r="3.34"/><circle class="cls-6" cx="90.13" cy="175.7" r="3.34"/><circle class="cls-6" cx="114.89" cy="175.7" r="3.34"/><circle class="cls-6" cx="139.65" cy="175.7" r="3.34"/><circle class="cls-6" cx="164.41" cy="175.7" r="3.34"/><circle class="cls-6" cx="189.17" cy="175.7" r="3.34"/><circle class="cls-6" cx="213.93" cy="175.7" r="3.34"/><circle class="cls-6" cx="238.69" cy="175.7" r="3.34"/><circle class="cls-6" cx="263.45" cy="175.7" r="3.34"/><circle class="cls-6" cx="15.85" cy="199.05" r="3.34"/><circle class="cls-6" cx="40.61" cy="199.05" r="3.34"/><circle class="cls-6" cx="65.37" cy="199.05" r="3.34"/><circle class="cls-6" cx="90.13" cy="199.05" r="3.34"/><circle class="cls-6" cx="114.89" cy="199.05" r="3.34"/><circle class="cls-6" cx="139.65" cy="199.05" r="3.34"/><circle class="cls-6" cx="164.41" cy="199.05" r="3.34"/><circle class="cls-6" cx="189.17" cy="199.05" r="3.34"/><circle class="cls-6" cx="213.93" cy="199.05" r="3.34"/><circle class="cls-6" cx="238.69" cy="199.05" r="3.34"/><circle class="cls-6" cx="263.45" cy="199.05" r="3.34"/><circle class="cls-6" cx="15.85" cy="222.4" r="3.34"/><circle class="cls-6" cx="40.61" cy="222.4" r="3.34"/><circle class="cls-6" cx="65.37" cy="222.4" r="3.34"/><circle class="cls-6" cx="90.13" cy="222.4" r="3.34"/><circle class="cls-6" cx="114.89" cy="222.4" r="3.34"/><circle class="cls-6" cx="139.65" cy="222.4" r="3.34"/><circle class="cls-6" cx="164.41" cy="222.4" r="3.34"/><circle class="cls-6" cx="189.17" cy="222.4" r="3.34"/><circle class="cls-6" cx="213.93" cy="222.4" r="3.34"/><circle class="cls-6" cx="238.69" cy="222.4" r="3.34"/><circle class="cls-6" cx="263.45" cy="222.4" r="3.34"/><circle class="cls-6" cx="15.85" cy="245.75" r="3.34"/><circle class="cls-6" cx="40.61" cy="245.75" r="3.34"/><circle class="cls-6" cx="65.37" cy="245.75" r="3.34"/><circle class="cls-6" cx="90.13" cy="245.75" r="3.34"/><circle class="cls-6" cx="114.89" cy="245.75" r="3.34"/><circle class="cls-6" cx="139.65" cy="245.75" r="3.34"/><circle class="cls-6" cx="164.41" cy="245.75" r="3.34"/><circle class="cls-6" cx="189.17" cy="245.75" r="3.34"/><circle class="cls-6" cx="213.93" cy="245.75" r="3.34"/><circle class="cls-6" cx="238.69" cy="245.75" r="3.34"/><circle class="cls-6" cx="263.45" cy="245.75" r="3.34"/><circle class="cls-6" cx="15.85" cy="269.09" r="3.34"/><circle class="cls-6" cx="40.61" cy="269.09" r="3.34"/><circle class="cls-6" cx="65.37" cy="269.09" r="3.34"/><circle class="cls-6" cx="90.13" cy="269.09" r="3.34"/><circle class="cls-6" cx="114.89" cy="269.09" r="3.34"/><circle class="cls-6" cx="139.65" cy="269.09" r="3.34"/><circle class="cls-6" cx="164.41" cy="269.09" r="3.34"/><circle class="cls-6" cx="189.17" cy="269.09" r="3.34"/><circle class="cls-6" cx="213.93" cy="269.09" r="3.34"/><circle class="cls-6" cx="238.69" cy="269.09" r="3.34"/><circle class="cls-6" cx="263.45" cy="269.09" r="3.34"/><circle class="cls-6" cx="15.85" cy="292.44" r="3.34"/><circle class="cls-6" cx="40.61" cy="292.44" r="3.34"/><circle class="cls-6" cx="65.37" cy="292.44" r="3.34"/><circle class="cls-6" cx="90.13" cy="292.44" r="3.34"/><circle class="cls-6" cx="114.89" cy="292.44" r="3.34"/><circle class="cls-6" cx="139.65" cy="292.44" r="3.34"/><circle class="cls-6" cx="164.41" cy="292.44" r="3.34"/><circle class="cls-6" cx="189.17" cy="292.44" r="3.34"/><circle class="cls-6" cx="213.93" cy="292.44" r="3.34"/><circle class="cls-6" cx="238.69" cy="292.44" r="3.34"/><circle class="cls-6" cx="263.45" cy="292.44" r="3.34"/><circle class="cls-6" cx="15.85" cy="315.79" r="3.34"/><circle class="cls-6" cx="40.61" cy="315.79" r="3.34"/><circle class="cls-6" cx="65.37" cy="315.79" r="3.34"/><circle class="cls-6" cx="90.13" cy="315.79" r="3.34"/><circle class="cls-6" cx="114.89" cy="315.79" r="3.34"/><circle class="cls-6" cx="139.65" cy="315.79" r="3.34"/><circle class="cls-6" cx="164.41" cy="315.79" r="3.34"/><circle class="cls-6" cx="189.17" cy="315.79" r="3.34"/><circle class="cls-6" cx="213.93" cy="315.79" r="3.34"/><circle class="cls-6" cx="238.69" cy="315.79" r="3.34"/><circle class="cls-6" cx="263.45" cy="315.79" r="3.34"/><rect x="-55.83" y="81.32" width="289.69" height="206.68" rx="15" ry="15" transform="rotate(9.45 89.022 184.68)" stroke="#231f20" stroke-miterlimit="10" stroke-width="3" fill="#5e5ee4"/><rect class="cls-5" x="174.59" y="117.39" width="50.82" height="30.49" rx="7.86" ry="7.86" transform="rotate(9.88 199.998 132.61)"/><text transform="rotate(9.88 -699.363 1134.783)" font-family="Poppins-Bold,Poppins" font-size="20" font-weight="700"><tspan x="0" y="0">Ad</tspan></text><circle class="cls-5" cx="95.7" cy="187.41" r="73.89"/><path class="cls-2" d="M62 253.19s-58.25-95.33 42.87-139.1"/><path class="cls-2" d="M32.02 149.93s58.17-14.54 128.91 72.23M57.3 124.27s-2.5 14.54 17.78 14.87c20.29.33 65.9-8.3 90.22 23.44M21.81 187.41s9.23-24.91 28.43-21.98c19.19 2.93 46.74 59.33 52.36 68.28 6.28 9.99 18.29 17.22 30.98 17.15"/></g></svg>